<svg xmlns="http://www.w3.org/2000/svg"  viewBox="0 0 100 100" width="50px" height="50px"><circle cx="13" cy="29" r="2" fill="#78a0cf"/><circle cx="77" cy="13" r="1" fill="#f1bc19"/><circle cx="50" cy="50" r="37" fill="#cee1f4"/><circle cx="83" cy="15" r="4" fill="#f1bc19"/><circle cx="87" cy="24" r="2" fill="#78a0cf"/><circle cx="81" cy="76" r="2" fill="#fbcd59"/><circle cx="15" cy="63" r="4" fill="#fbcd59"/><circle cx="25" cy="87" r="2" fill="#78a0cf"/><circle cx="18.5" cy="53.5" r="2.5" fill="#fff"/><circle cx="21" cy="67" r="1" fill="#f1bc19"/><circle cx="80" cy="34" r="1" fill="#fff"/><path fill="#beace5" d="M72.3,76.3l-10.5-7.6l1.3,3.6H33.7c-3.314,0-6-2.686-6-6V33.7c0-3.314,2.686-6,6-6h32.6	c3.314,0,6,2.686,6,6V76.3z"/><path fill="#472b29" d="M72.3,77c-0.145,0-0.289-0.045-0.41-0.133l-8.66-6.268l0.528,1.463	c0.078,0.214,0.046,0.453-0.085,0.64C63.541,72.889,63.328,73,63.1,73H33.7c-3.694,0-6.7-3.006-6.7-6.7V33.7	c0-3.694,3.006-6.7,6.7-6.7h32.6c3.694,0,6.7,3.006,6.7,6.7v42.6c0,0.263-0.147,0.504-0.382,0.623C72.518,76.975,72.408,77,72.3,77z M61.8,68c0.144,0,0.288,0.045,0.41,0.133l9.39,6.796V33.7c0-2.922-2.377-5.3-5.3-5.3H33.7c-2.923,0-5.3,2.377-5.3,5.3v32.6	c0,2.923,2.377,5.3,5.3,5.3h28.402l-0.961-2.662c-0.104-0.288-0.008-0.611,0.237-0.797C61.503,68.047,61.651,68,61.8,68z"/><path fill="#472b29" d="M54.5,70h-12c-0.276,0-0.5-0.224-0.5-0.5s0.224-0.5,0.5-0.5h12c0.276,0,0.5,0.224,0.5,0.5	S54.776,70,54.5,70z"/><path fill="#472b29" d="M69.5,66c-0.276,0-0.5-0.224-0.5-0.5v-6c0-0.276,0.224-0.5,0.5-0.5s0.5,0.224,0.5,0.5v6	C70,65.776,69.776,66,69.5,66z"/><path fill="#472b29" d="M69.5,57c-0.276,0-0.5-0.224-0.5-0.5v-2c0-0.276,0.224-0.5,0.5-0.5s0.5,0.224,0.5,0.5v2	C70,56.776,69.776,57,69.5,57z"/><path fill="#472b29" d="M39.5,70h-6c-1.93,0-3.5-1.57-3.5-3.5v-33c0-1.93,1.57-3.5,3.5-3.5h33c1.93,0,3.5,1.57,3.5,3.5v18	c0,0.276-0.224,0.5-0.5,0.5S69,51.776,69,51.5v-18c0-1.378-1.121-2.5-2.5-2.5h-33c-1.379,0-2.5,1.122-2.5,2.5v33	c0,1.379,1.121,2.5,2.5,2.5h6c0.276,0,0.5,0.224,0.5,0.5S39.776,70,39.5,70z"/><path fill="#fdfcef" d="M59.5,41.8c0,0-2.43-1.47-5.9-1.9l-0.66,1.86c0,0-0.94-0.26-2.94-0.26s-2.94,0.26-2.94,0.26	L46.4,39.9c-3.47,0.43-5.9,1.9-5.9,1.9c-1.9,1.18-4,9.2-4,14c0,0,2.88,3.7,7.3,3.7l1.78-2.63c0,0,2.42,0.63,4.42,0.63	s4.42-0.63,4.42-0.63l1.78,2.63c4.42,0,7.3-3.7,7.3-3.7C63.5,51,61.4,42.98,59.5,41.8z M45.5,53.5c-1.1,0-2-1.12-2-2.5	s0.9-2.5,2-2.5s2,1.12,2,2.5S46.6,53.5,45.5,53.5z M54.5,53.5c-1.1,0-2-1.12-2-2.5s0.9-2.5,2-2.5s2,1.12,2,2.5S55.6,53.5,54.5,53.5z"/><path fill="#472b29" d="M45.5,54c-1.379,0-2.5-1.346-2.5-3s1.121-3,2.5-3s2.5,1.346,2.5,3S46.879,54,45.5,54z M45.5,49	c-0.827,0-1.5,0.897-1.5,2s0.673,2,1.5,2s1.5-0.897,1.5-2S46.327,49,45.5,49z"/><path fill="#472b29" d="M54.5,54c-1.379,0-2.5-1.346-2.5-3s1.121-3,2.5-3s2.5,1.346,2.5,3S55.879,54,54.5,54z M54.5,49	c-0.827,0-1.5,0.897-1.5,2s0.673,2,1.5,2s1.5-0.897,1.5-2S55.327,49,54.5,49z"/><path fill="#472b29" d="M42.5,43.8c-0.169,0-0.335-0.086-0.429-0.243c-0.143-0.237-0.065-0.544,0.172-0.686	C42.37,42.794,45.414,41,50,41s7.63,1.794,7.757,1.871c0.237,0.142,0.313,0.448,0.172,0.685c-0.142,0.236-0.449,0.314-0.686,0.173	C57.214,43.711,54.295,42,50,42c-4.312,0-7.214,1.711-7.243,1.729C42.677,43.777,42.588,43.8,42.5,43.8z"/><path fill="#472b29" d="M50,58c-5.204,0-8.652-2.491-8.796-2.597c-0.223-0.164-0.271-0.476-0.107-0.698	c0.164-0.223,0.477-0.27,0.699-0.108C41.828,54.621,45.139,57,50,57c4.879,0,8.171-2.379,8.204-2.403	c0.221-0.163,0.534-0.117,0.699,0.106c0.163,0.223,0.115,0.536-0.107,0.699C58.652,55.509,55.204,58,50,58z"/><path fill="#472b29" d="M43.8,60c-4.61,0-7.57-3.734-7.694-3.893C36.037,56.019,36,55.911,36,55.8	c0-4.438,1.979-13.015,4.235-14.424c0.109-0.066,2.571-1.533,6.104-1.972c0.231-0.023,0.454,0.107,0.532,0.328l0.664,1.857	c0.093,0.26-0.042,0.546-0.303,0.639c-0.26,0.094-0.545-0.043-0.639-0.302l-0.527-1.475c-3.103,0.469-5.286,1.764-5.309,1.777	c-1.592,0.995-3.705,8.556-3.757,13.392c0.533,0.615,3.016,3.25,6.537,3.375l1.633-2.408c0.155-0.228,0.466-0.288,0.694-0.133	c0.229,0.155,0.288,0.466,0.134,0.694l-1.785,2.632C44.12,59.918,43.966,60,43.8,60z"/><path fill="#472b29" d="M56.2,60c-0.166,0-0.32-0.082-0.414-0.219l-1.785-2.632c-0.154-0.229-0.095-0.54,0.134-0.694	c0.229-0.156,0.539-0.096,0.694,0.133l1.633,2.408c3.521-0.126,6.004-2.76,6.537-3.375c-0.052-4.835-2.165-12.397-3.764-13.396	c-0.017-0.009-2.2-1.304-5.302-1.773l-0.527,1.475c-0.093,0.259-0.378,0.396-0.639,0.302c-0.261-0.093-0.396-0.379-0.303-0.639	l0.664-1.857c0.078-0.221,0.301-0.354,0.532-0.328c3.532,0.439,5.994,1.906,6.097,1.968C62.021,42.785,64,51.362,64,55.8	c0,0.111-0.037,0.219-0.105,0.307C63.771,56.266,60.811,60,56.2,60z"/></svg>